<svg xmlns="http://www.w3.org/2000/svg" width="23.132" height="23.132" viewBox="0 0 23.132 23.132">
  <path id="account-svgrepo-com" d="M22.632,11.3A11.316,11.316,0,1,0,4.006,19.919c.023.023.045.023.045.045.2.158.407.317.634.475A3.023,3.023,0,0,1,5,20.687a11.3,11.3,0,0,0,12.676,0c.111-.066.2-.156.315-.225.2-.157.43-.315.634-.474.023-.023.045-.023.045-.045A11.507,11.507,0,0,0,22.632,11.3Zm-11.316,9.9A9.822,9.822,0,0,1,5.635,19.4a4.613,4.613,0,0,1,.113-.542,5.9,5.9,0,0,1,.588-1.4A4.977,4.977,0,0,1,7.242,16.3,6.353,6.353,0,0,1,8.4,15.4a5.712,5.712,0,0,1,1.381-.566,6.008,6.008,0,0,1,5.681,1.447A5.667,5.667,0,0,1,16.68,18.11a6.014,6.014,0,0,1,.339,1.289,9.944,9.944,0,0,1-5.7,1.809ZM7.853,10.74a3.709,3.709,0,0,1,0-2.9A3.859,3.859,0,0,1,9.867,5.833a3.53,3.53,0,0,1,1.448-.294,3.456,3.456,0,0,1,1.448.294,3.859,3.859,0,0,1,2.014,2.011,3.528,3.528,0,0,1,.294,1.447,3.445,3.445,0,0,1-.294,1.447,3.855,3.855,0,0,1-2.014,2.013,3.84,3.84,0,0,1-2.92,0,4.017,4.017,0,0,1-1.2-.813,3.573,3.573,0,0,1-.792-1.2Zm10.5,7.505c0-.045-.023-.068-.023-.113a7.384,7.384,0,0,0-.973-1.989,6.907,6.907,0,0,0-1.539-1.605,7.365,7.365,0,0,0-1.471-.86A3.989,3.989,0,0,0,15,13.136a5.941,5.941,0,0,0,.883-1.109,5.126,5.126,0,0,0,.747-2.736,5.248,5.248,0,0,0-.407-2.079,5.374,5.374,0,0,0-1.154-1.7,5.439,5.439,0,0,0-1.7-1.132,5.534,5.534,0,0,0-4.164,0,5.136,5.136,0,0,0-1.7,1.153,5.432,5.432,0,0,0-1.132,1.7,5.248,5.248,0,0,0-.407,2.079,4.919,4.919,0,0,0,.2,1.424,5.2,5.2,0,0,0,.566,1.311,5.143,5.143,0,0,0,.883,1.109,3.965,3.965,0,0,0,.679.542,7.242,7.242,0,0,0-1.471.883A7.84,7.84,0,0,0,5.3,16.166a7.071,7.071,0,0,0-.973,1.989.246.246,0,0,0-.023.113A9.9,9.9,0,1,1,21.229,11.3a9.845,9.845,0,0,1-2.874,6.941Z" transform="translate(0.25 0.25)" fill="#fcc412" stroke="#fcc412" stroke-width="0.5"/>
</svg>
