<svg xmlns="http://www.w3.org/2000/svg" width="24.094" height="24.077" viewBox="0 0 24.094 24.077">
  <g id="Group_210" data-name="Group 210" transform="translate(-1266.157 -43.265)">
    <g id="search-svgrepo-com" transform="translate(1267.157 44.065)">
      <g id="Group_136" data-name="Group 136" transform="translate(0 0.2)">
        <path id="Path_149" data-name="Path 149" d="M21.817,20.7l-6.34-6.344a8.564,8.564,0,0,0,2-5.506A8.74,8.74,0,0,0,0,8.858a8.749,8.749,0,0,0,14.16,6.779L20.522,22a.916.916,0,1,0,1.3-1.3ZM1.857,8.858a6.879,6.879,0,0,1,13.757,0,6.879,6.879,0,0,1-13.757,0Z" transform="translate(0 -0.2)" fill="#ff6926"/>
        <path id="Path_149_-_Outline" data-name="Path 149 - Outline" d="M21.17,23.277a1.909,1.909,0,0,1-1.355-.571l-5.763-5.763a9.636,9.636,0,1,1,4.427-8.089,9.61,9.61,0,0,1-1.68,5.414L22.524,20a1.926,1.926,0,0,1-1.355,3.28ZM8.735,3.061a5.845,5.845,0,0,0-5.878,5.8,5.879,5.879,0,0,0,11.757,0A5.845,5.845,0,0,0,8.735,3.061Z" transform="translate(0 -0.2)" fill="#ff6926"/>
      </g>
    </g>
  </g>
</svg>
