<svg xmlns="http://www.w3.org/2000/svg" width="17.135" height="18.126" viewBox="0 0 17.135 18.126">
  <g id="XMLID_23_" transform="translate(0.25 -7.75)">
    <path id="XMLID_24_" d="M83.748,22.38q.027.027.056.05l.026.02.033.024.033.02.031.018.034.017.033.015.034.012.036.013.034.009.037.009.04.006.033,0c.025,0,.05,0,.075,0s.05,0,.075,0l.034,0,.04-.006.038-.009.034-.009.036-.013.033-.012.033-.015.034-.016.031-.018.033-.02.032-.024.027-.02q.028-.023.053-.048l0,0,3.529-3.528a.756.756,0,0,0-1.069-1.069L85.039,20.02V10.756a.756.756,0,0,0-1.512,0V20.02l-2.238-2.238a.756.756,0,0,0-1.069,1.069Z" transform="translate(-75.966 -2)" fill="#fff" stroke="#fff" stroke-width="0.5"/>
    <path id="XMLID_25_" d="M15.878,160a.756.756,0,0,0-.756.756v5.8H1.512v-5.8a.756.756,0,0,0-1.512,0v6.553a.756.756,0,0,0,.756.756H15.878a.756.756,0,0,0,.756-.756v-6.553A.756.756,0,0,0,15.878,160Z" transform="translate(0 -142.439)" fill="#fff" stroke="#fff" stroke-width="0.5"/>
  </g>
</svg>
