<svg xmlns="http://www.w3.org/2000/svg" width="20.689" height="21.823" viewBox="0 0 20.689 21.823">
  <g id="cart-svgrepo-com" transform="translate(-1)">
    <path id="Path_156" data-name="Path 156" d="M18.226,6H7.859a2.871,2.871,0,0,0-2.8,3.511L6.109,14.1a2.871,2.871,0,0,0,2.8,2.232h8.268a2.871,2.871,0,0,0,2.8-2.232l1.049-4.594A2.871,2.871,0,0,0,18.226,6ZM7.731,8.312A.574.574,0,0,1,7.859,8.3H18.226a.574.574,0,0,1,.56.7l-1.049,4.594a.574.574,0,0,1-.56.446H8.908a.574.574,0,0,1-.56-.446L7.3,9A.574.574,0,0,1,7.731,8.312Z" transform="translate(0.592 0.891)" fill="#ff6926" fill-rule="evenodd"/>
    <path id="Path_157" data-name="Path 157" d="M3.86,2.3H2.149a1.149,1.149,0,1,1,0-2.3h2.63A1.149,1.149,0,0,1,5.9.9L9.012,14.678a1.149,1.149,0,0,1-2.241.506Z" transform="translate(0)" fill="#ff6926"/>
    <path id="Path_158" data-name="Path 158" d="M10.52,17.51A2.01,2.01,0,1,1,8.51,15.5,2.01,2.01,0,0,1,10.52,17.51Z" transform="translate(0.817 2.303)" fill="#ff6926"/>
    <path id="Path_159" data-name="Path 159" d="M17.52,17.51a2.01,2.01,0,1,1-2.01-2.01A2.01,2.01,0,0,1,17.52,17.51Z" transform="translate(1.857 2.303)" fill="#ff6926"/>
  </g>
</svg>
