<svg xmlns="http://www.w3.org/2000/svg" width="60" height="60" viewBox="0 0 60 60">
  <g id="Group_126" data-name="Group 126" transform="translate(-0.184)">
    <circle id="Ellipse_72" data-name="Ellipse 72" cx="30" cy="30" r="30" transform="translate(0.184 0)" fill="#ff6926"/>
    <g id="XMLID_801_" transform="translate(18.006 14.861)">
      <path id="XMLID_802_" d="M10.622,99.73H5.351a.424.424,0,0,0-.424.424v16.935a.423.423,0,0,0,.424.424h5.271a.423.423,0,0,0,.424-.424V100.154A.424.424,0,0,0,10.622,99.73Z" transform="translate(-4.51 -91.311)" fill="#fff"/>
      <path id="XMLID_803_" d="M3.478.341A3.475,3.475,0,1,0,6.954,3.816,3.48,3.48,0,0,0,3.478.341Z" transform="translate(0 -0.341)" fill="#fff"/>
      <path id="XMLID_804_" d="M116.7,94.761a6.191,6.191,0,0,0-4.632,1.944v-1.1a.424.424,0,0,0-.424-.424H106.6a.424.424,0,0,0-.424.424V112.54a.423.423,0,0,0,.424.424h5.26a.423.423,0,0,0,.424-.424v-8.379c0-2.823.767-3.923,2.735-3.923,2.144,0,2.314,1.763,2.314,4.069v8.234a.423.423,0,0,0,.424.424h5.262a.423.423,0,0,0,.424-.424v-9.289C123.441,99.053,122.64,94.761,116.7,94.761Z" transform="translate(-97.182 -86.763)" fill="#fff"/>
    </g>
  </g>
</svg>
