<svg xmlns="http://www.w3.org/2000/svg" width="59" height="60" viewBox="0 0 59 60">
  <g id="Group_128" data-name="Group 128" transform="translate(0.408)">
    <ellipse id="Ellipse_74" data-name="Ellipse 74" cx="29.5" cy="30" rx="29.5" ry="30" transform="translate(-0.408 0)" fill="#ff6926"/>
    <g id="XMLID_826_" transform="translate(18.152 18.877)">
      <path id="XMLID_827_" d="M26.077,30.618a10.115,10.115,0,0,1-1.291.47,5.7,5.7,0,0,0,1.162-2.043.43.43,0,0,0-.629-.5,10.156,10.156,0,0,1-3,1.186,5.731,5.731,0,0,0-9.738,4.094,5.843,5.843,0,0,0,.047.74A14.665,14.665,0,0,1,2.56,29.225a.43.43,0,0,0-.705.055,5.737,5.737,0,0,0,.587,6.593,4.853,4.853,0,0,1-.767-.342.43.43,0,0,0-.639.366c0,.025,0,.051,0,.077a5.749,5.749,0,0,0,2.8,4.926c-.146-.015-.291-.036-.436-.063a.43.43,0,0,0-.491.554,5.726,5.726,0,0,0,4.2,3.839,10.134,10.134,0,0,1-5.417,1.546,10.364,10.364,0,0,1-1.213-.071A.43.43,0,0,0,.2,47.5a15.448,15.448,0,0,0,8.354,2.448,14.861,14.861,0,0,0,11.514-5.057,16.029,16.029,0,0,0,3.99-10.447c0-.157,0-.316-.007-.474a11.136,11.136,0,0,0,2.563-2.715.43.43,0,0,0-.532-.633Z" transform="translate(0.002 -28.097)" fill="#fff"/>
    </g>
  </g>
</svg>
