<svg xmlns="http://www.w3.org/2000/svg" xmlns:xlink="http://www.w3.org/1999/xlink" width="82" height="82" viewBox="0 0 82 82">
  <defs>
    <clipPath id="clip-path">
      <rect id="Rectangle_163" data-name="Rectangle 163" width="82" height="82" transform="translate(0 0)"/>
    </clipPath>
  </defs>
  <g id="logo-ndis" transform="translate(-1.44 -1.23)">
    <g id="Group_122" data-name="Group 122" transform="translate(1.44 1.23)">
      <g id="Group_121" data-name="Group 121" transform="translate(0)" clip-path="url(#clip-path)">
        <path id="Path_99" data-name="Path 99" d="M42.013,1.47C54.161,1.489,64.644,5.776,72.5,13.805a40.9,40.9,0,1,1-70.158,28.4,40.534,40.534,0,0,1,12.3-29.046A39.8,39.8,0,0,1,42.013,1.47" transform="translate(-2.237 -1.443)" fill="#6b2975"/>
      </g>
    </g>
    <g id="Group_123" data-name="Group 123" transform="translate(17.205 13.199)">
      <path id="Path_100" data-name="Path 100" d="M328.83,110.357c.267-.28.525-.57.812-.834a8.888,8.888,0,0,1,3.264-1.985,6.941,6.941,0,0,1,5.251.4,5.837,5.837,0,0,1,1.825,1.439,9.817,9.817,0,0,1,2.309,4.08,9.043,9.043,0,0,1-.15,5.183,14.007,14.007,0,0,1-2.058,3.972,25.944,25.944,0,0,1-4.033,4.332,52.944,52.944,0,0,1-6.907,5,.532.532,0,0,1-.668,0,56.416,56.416,0,0,1-6-4.225,28.619,28.619,0,0,1-4.564-4.582,14.913,14.913,0,0,1-2.335-4.149,9.463,9.463,0,0,1-.549-3.878,8.918,8.918,0,0,1,1.3-3.985,11.094,11.094,0,0,1,1.963-2.4,4.665,4.665,0,0,1,1.212-.8,6.933,6.933,0,0,1,6.769.3,10.035,10.035,0,0,1,2.36,1.931c.049.053.1.105.147.157a.272.272,0,0,0,.052.031" transform="translate(-295.353 -107.196)" fill="#8cc63f"/>
      <path id="Path_101" data-name="Path 101" d="M294.58,406.337c-.125.113-.246.228-.373.337a5.659,5.659,0,0,1-2.672,1.258,6.7,6.7,0,0,1-3.626-.274,5.839,5.839,0,0,1-3.176-2.863,9.16,9.16,0,0,1-.945-2.968,14.368,14.368,0,0,1-.038-3.98,9.509,9.509,0,0,1,1.336-3.977,6.025,6.025,0,0,1,3.98-2.823,5.9,5.9,0,0,1,4.005.443,6.005,6.005,0,0,1,1,.654c.046.037.08.1.178.094v-7.7c0-.4.043-.45.451-.523a6.94,6.94,0,0,1,1.048-.072,19.641,19.641,0,0,1,2.079.041,1.747,1.747,0,0,1,.469.089.3.3,0,0,1,.242.337c0,.063,0,.128,0,.191v18.784a2.541,2.541,0,0,0,.033.453.592.592,0,0,0,.522.543,1.86,1.86,0,0,0,.38.035c.219.008.306.075.341.289a3.232,3.232,0,0,1,.046.5,16.8,16.8,0,0,1-.036,1.769,2.38,2.38,0,0,1-.042.235.4.4,0,0,1-.29.316,5.881,5.881,0,0,1-1.161.272,5.681,5.681,0,0,1-1.62.024,2.6,2.6,0,0,1-2.078-1.425.364.364,0,0,0-.051-.058" transform="translate(-267.521 -352.676)" fill="#fff"/>
      <path id="Path_102" data-name="Path 102" d="M208.552,123.1v8.064c0,.326-.028.289.3.29.518,0,1.037,0,1.555,0h.12c.4.006.494.095.548.5a7.422,7.422,0,0,1,.041,1.074,15.18,15.18,0,0,1-.04,1.7c0,.032-.006.063-.01.095-.053.374-.15.457-.531.457h-9.762c-.055,0-.112,0-.167,0a.312.312,0,0,1-.3-.228,1.679,1.679,0,0,1-.088-.516c-.027-.782-.026-1.562,0-2.344a1.709,1.709,0,0,1,.076-.47.316.316,0,0,1,.309-.251c.12,0,.238-.011.358-.011h1.6c.186,0,.186,0,.19-.18,0-.04,0-.08,0-.12q0-8.051,0-16.1c0-.332.045-.284-.295-.286-.574,0-1.149,0-1.722,0-.317,0-.422-.094-.481-.409a3.723,3.723,0,0,1-.051-.69c0-.622,0-1.245.009-1.866a2.811,2.811,0,0,1,.061-.522c.052-.252.159-.331.416-.341.063,0,.128,0,.192,0h9.691c.347,0,.452.094.5.44a5.383,5.383,0,0,1,.051.762c0,.574,0,1.149-.009,1.723a2.456,2.456,0,0,1-.064.544c-.066.276-.168.356-.453.356-.591,0-1.18,0-1.771,0h-.167c-.071,0-.1.036-.1.1s0,.128,0,.192V123.1" transform="translate(-193.508 -110.515)" fill="#fff"/>
      <path id="Path_103" data-name="Path 103" d="M145.235,447.42c.12-.117.22-.217.323-.314a5.805,5.805,0,0,1,3.133-1.526,6.888,6.888,0,0,1,3.42.285,4.841,4.841,0,0,1,3.152,3.456,9.029,9.029,0,0,1,.314,2.363c.045,3.357.009,6.715.019,10.072,0,.329-.072.425-.4.491a3.4,3.4,0,0,1-.546.066c-.829.038-1.657.033-2.486,0a2.649,2.649,0,0,1-.637-.094.294.294,0,0,1-.241-.312c0-.071,0-.143,0-.216q0-4.463,0-8.925a9.85,9.85,0,0,0-.121-1.619,1.961,1.961,0,0,0-1.626-1.718,4.67,4.67,0,0,0-2.521.14,1.9,1.9,0,0,0-1.416,1.858c-.035.6-.055,1.194-.056,1.793q0,4.224,0,8.446c0,.055,0,.112,0,.167-.007.23-.066.316-.285.383a3.278,3.278,0,0,1-.852.105q-1.135.037-2.271-.01a3.671,3.671,0,0,1-.522-.059c-.309-.058-.368-.138-.368-.45q0-4.271,0-8.542c0-1.307-.027-2.615-.072-3.921-.034-.987-.07-1.974-.156-2.959a.381.381,0,0,1,.343-.483,3.756,3.756,0,0,1,.878-.089,20.1,20.1,0,0,1,2.1.035c.047,0,.1.007.142.015.37.059.5.169.575.536.07.331.115.663.175,1.026" transform="translate(-141.014 -407.275)" fill="#fff"/>
      <path id="Path_104" data-name="Path 104" d="M496.733,445.579a9.016,9.016,0,0,1,3.94.834,6.927,6.927,0,0,1,1.145.689.426.426,0,0,1,.189.576,2.867,2.867,0,0,1-.287.6c-.264.445-.536.886-.81,1.326a1.687,1.687,0,0,1-.3.37.38.38,0,0,1-.52.061c-.268-.157-.534-.316-.814-.453a5.362,5.362,0,0,0-2.375-.559,3.991,3.991,0,0,0-1.637.284,1.614,1.614,0,0,0-.559.4,1.026,1.026,0,0,0,.124,1.54,3.254,3.254,0,0,0,.879.478c.623.245,1.27.419,1.908.617a13.793,13.793,0,0,1,2.249.864,5.3,5.3,0,0,1,1.53,1.13,3.878,3.878,0,0,1,1.005,2.328,5.245,5.245,0,0,1-1.366,4.141,5.573,5.573,0,0,1-2.676,1.593,9.221,9.221,0,0,1-2.24.334,10.675,10.675,0,0,1-3.678-.483,7.665,7.665,0,0,1-2.489-1.292.52.52,0,0,1-.219-.7,1.359,1.359,0,0,1,.049-.134,13.487,13.487,0,0,1,1.071-1.917,1.29,1.29,0,0,1,.1-.131c.258-.294.4-.314.736-.1a7.989,7.989,0,0,0,2.994,1.2,4.972,4.972,0,0,0,2.388-.134,2.131,2.131,0,0,0,.712-.383,1.044,1.044,0,0,0-.049-1.729,4.483,4.483,0,0,0-1.323-.6c-.742-.238-1.5-.427-2.239-.68a7.932,7.932,0,0,1-2.277-1.135,4.145,4.145,0,0,1-1.656-3.006,5.226,5.226,0,0,1,.312-2.512,4.865,4.865,0,0,1,2.1-2.4,7.252,7.252,0,0,1,2.86-.943,9.371,9.371,0,0,1,1.219-.068" transform="translate(-450.297 -407.358)" fill="#fff"/>
      <path id="Path_105" data-name="Path 105" d="M442.048,456.547v-7.63c0-.427.049-.5.473-.559a6.205,6.205,0,0,1,.857-.06c.757,0,1.515-.035,2.27.036a2.2,2.2,0,0,1,.445.082.322.322,0,0,1,.255.332c0,.063,0,.128,0,.191v15.235c0,.438-.075.518-.509.585a6.229,6.229,0,0,1-.882.056,18.884,18.884,0,0,1-2.411-.055c-.032,0-.063,0-.095-.01-.325-.059-.4-.146-.4-.479q0-1.794,0-3.587Z" transform="translate(-408.046 -409.762)" fill="#fff"/>
      <path id="Path_106" data-name="Path 106" d="M438.864,389.51a2.75,2.75,0,1,1,2.774-2.7,2.752,2.752,0,0,1-2.774,2.7" transform="translate(-402.778 -352.743)" fill="#8cc63f"/>
      <path id="Path_107" data-name="Path 107" d="M328.967,483.067c0,.845,0,1.69,0,2.535a5.506,5.506,0,0,1-.066.9,1.538,1.538,0,0,1-.787,1.136,3.743,3.743,0,0,1-1.423.457,3.921,3.921,0,0,1-1.837-.187,2.632,2.632,0,0,1-1.457-1.343,5.281,5.281,0,0,1-.526-1.727,10.638,10.638,0,0,1,.09-3.447,5.207,5.207,0,0,1,.431-1.336,2.854,2.854,0,0,1,2.777-1.709,3.544,3.544,0,0,1,2.73,1.364.363.363,0,0,1,.068.268v3.086Z" transform="translate(-302.24 -436.427)" fill="#6b2976"/>
    </g>
  </g>
</svg>
