<svg id="Group_124" data-name="Group 124" xmlns="http://www.w3.org/2000/svg" width="60" height="60" viewBox="0 0 60 60">
  <circle id="Ellipse_75" data-name="Ellipse 75" cx="30" cy="30" r="30" transform="translate(0 0)" fill="#ff6926"/>
  <g id="XMLID_834_" transform="translate(24.058 16.7)">
    <path id="XMLID_835_" d="M77.126,13.955H80V25.778a.423.423,0,0,0,.423.423h4.87a.423.423,0,0,0,.423-.423V14.01h3.3a.423.423,0,0,0,.42-.374l.5-4.353a.423.423,0,0,0-.42-.471h-3.8V6.083c0-.823.443-1.24,1.316-1.24h2.487a.423.423,0,0,0,.423-.423v-4A.423.423,0,0,0,89.516,0H86.089c-.024,0-.078,0-.157,0a6.567,6.567,0,0,0-4.294,1.619,4.5,4.5,0,0,0-1.5,4V8.812H77.126a.423.423,0,0,0-.423.423v4.3A.423.423,0,0,0,77.126,13.955Z" transform="translate(-76.703)" fill="#fff"/>
  </g>
</svg>
