<svg id="b" xmlns="http://www.w3.org/2000/svg" xmlns:xlink="http://www.w3.org/1999/xlink" width="212.083" height="57.124" viewBox="0 0 212.083 57.124">
  <defs>
    <linearGradient id="linear-gradient" x1="-0.254" y1="0.5" x2="1" y2="0.5" gradientUnits="objectBoundingBox">
      <stop offset="0.3" stop-color="#ec8c22"/>
      <stop offset="0.52" stop-color="#f3a71a"/>
      <stop offset="0.73" stop-color="#f9bc14"/>
      <stop offset="0.88" stop-color="#fcc412"/>
    </linearGradient>
    <linearGradient id="linear-gradient-2" y1="0.5" x2="1.077" y2="0.5" gradientUnits="objectBoundingBox">
      <stop offset="0.04" stop-color="#ff6926"/>
      <stop offset="0.49" stop-color="#f0522c"/>
      <stop offset="0.88" stop-color="#e13b34"/>
    </linearGradient>
  </defs>
  <g id="c">
    <g id="Group_130" data-name="Group 130">
      <path id="Path_108" data-name="Path 108" d="M418.69,17.254c-6.946-1.817-8.6-3.179-8.6-6.245V10.9c0-2.609,2.163-4.711,5.866-4.711a14.057,14.057,0,0,1,8.287,3.01,2.852,2.852,0,0,0,1.65.511,3.1,3.1,0,0,0,2.985-3.235,3.226,3.226,0,0,0-1.392-2.781A18.535,18.535,0,0,0,416.064,0a12.467,12.467,0,0,0-9.66,4.066,10.943,10.943,0,0,0-2.512,5.605h0a12.932,12.932,0,0,0-.132,1.849v.113c0,7.32,4.324,9.819,11.993,11.861,6.691,1.706,8.137,3.235,8.137,6.073v.116c0,2.95-2.472,4.993-6.385,4.993a14.326,14.326,0,0,1-9.048-3.23A10.813,10.813,0,0,1,405.6,37.2a20.769,20.769,0,0,0,11.746,3.66c7.57,0,12.871-4.426,12.871-11.861v-.113c0-6.586-3.912-9.593-11.533-11.635Z" transform="translate(-295.264 0)" fill="#fcc412"/>
      <path id="Path_109" data-name="Path 109" d="M0,26.291V6.594A3.3,3.3,0,0,1,3.2,3.13,3.259,3.259,0,0,1,6.336,6.594V26.006c0,7.379,3.45,11.3,9.117,11.3s9.064-3.689,9.064-11.012V6.594A3.3,3.3,0,0,1,27.71,3.13a3.259,3.259,0,0,1,3.141,3.464V25.949c0,11.864-6.078,17.824-15.5,17.824S0,37.816,0,26.291Z" transform="translate(0 -2.289)" fill="#650d6b"/>
      <path id="Path_110" data-name="Path 110" d="M138.87,6.707a3.35,3.35,0,0,1,3.192-3.52h.669c1.545,0,2.421.852,3.3,2.045l18.025,25.716V6.535a3.269,3.269,0,0,1,3.09-3.4,3.31,3.31,0,0,1,3.141,3.4V39.917a3.251,3.251,0,0,1-3.09,3.461h-.255c-1.494,0-2.421-.849-3.3-2.1L145.1,14.822V40.027a3.272,3.272,0,0,1-3.09,3.407,3.311,3.311,0,0,1-3.141-3.407Z" transform="translate(-101.554 -2.289)" fill="#650d6b"/>
      <path id="Path_111" data-name="Path 111" d="M279.47,6.594a3.3,3.3,0,0,1,3.192-3.464A3.259,3.259,0,0,1,285.8,6.594v33.38a3.291,3.291,0,0,1-3.141,3.464,3.331,3.331,0,0,1-3.192-3.464Z" transform="translate(-204.372 -2.289)" fill="#650d6b"/>
      <path id="Path_112" data-name="Path 112" d="M515.63,22.314V22.2c0-11.184,7.828-20.551,18.9-20.551s18.8,9.255,18.8,20.438V22.2c0,11.181-7.83,20.549-18.9,20.549S515.63,33.5,515.63,22.314Zm31.055,0V22.2c0-7.72-5.1-14.137-12.259-14.137s-12.154,6.3-12.154,14.024V22.2c0,7.72,5.1,14.078,12.259,14.078S546.685,30.034,546.685,22.314Z" transform="translate(-377.073 -1.207)" fill="#650d6b"/>
      <path id="Path_113" data-name="Path 113" d="M672.31,6.707a3.35,3.35,0,0,1,3.192-3.52h.669c1.545,0,2.421.852,3.3,2.045l18.025,25.716V6.535a3.269,3.269,0,0,1,3.09-3.4,3.31,3.31,0,0,1,3.141,3.4V39.917a3.251,3.251,0,0,1-3.09,3.461h-.255c-1.494,0-2.421-.849-3.3-2.1L678.542,14.822V40.027a3.272,3.272,0,0,1-3.09,3.407,3.311,3.311,0,0,1-3.141-3.407Z" transform="translate(-491.65 -2.289)" fill="#650d6b"/>
      <g id="Group_129" data-name="Group 129" transform="translate(138.557 48.272)">
        <path id="Path_114" data-name="Path 114" d="M515.63,180.6a.491.491,0,0,1,.478-.492h2.507a4.289,4.289,0,0,1,4.573,4.278v.024a4.308,4.308,0,0,1-4.573,4.3h-2.507a.491.491,0,0,1-.478-.492V180.6Zm2.988,7.215a3.332,3.332,0,0,0,3.566-3.383v-.024a3.351,3.351,0,0,0-3.566-3.4H516.6v6.812Z" transform="translate(-515.63 -179.984)" fill="#650d6b"/>
        <path id="Path_115" data-name="Path 115" d="M553.56,180.372a.491.491,0,0,1,.478-.492.5.5,0,0,1,.492.492v7.747a.5.5,0,0,1-.492.492.484.484,0,0,1-.478-.492Z" transform="translate(-543.368 -179.816)" fill="#650d6b"/>
        <path id="Path_116" data-name="Path 116" d="M566.725,187.339a.443.443,0,0,1-.185-.371.47.47,0,0,1,.468-.478.442.442,0,0,1,.3.11,3.908,3.908,0,0,0,2.717,1.021c1.156,0,1.919-.615,1.919-1.464v-.024c0-.8-.43-1.255-2.238-1.634-1.978-.433-2.889-1.072-2.889-2.486v-.021c0-1.354,1.19-2.351,2.827-2.351a4.4,4.4,0,0,1,2.741.849.5.5,0,0,1,.21.4.468.468,0,0,1-.468.468.451.451,0,0,1-.282-.086,3.613,3.613,0,0,0-2.225-.75c-1.118,0-1.83.615-1.83,1.389v.024c0,.812.443,1.266,2.335,1.671,1.916.419,2.8,1.118,2.8,2.435v.024c0,1.475-1.228,2.432-2.937,2.432a5.026,5.026,0,0,1-3.26-1.155Z" transform="translate(-552.86 -179.64)" fill="#650d6b"/>
        <path id="Path_117" data-name="Path 117" d="M596.787,187.8l3.491-7.634a.636.636,0,0,1,.615-.433h.048a.616.616,0,0,1,.6.433l3.491,7.621a.642.642,0,0,1,.062.247.468.468,0,0,1-.468.468.523.523,0,0,1-.478-.357l-.9-1.98h-4.721l-.9,2a.489.489,0,0,1-.468.333.442.442,0,0,1-.443-.443.577.577,0,0,1,.062-.258Zm6.084-2.521-1.978-4.4-1.98,4.4Z" transform="translate(-574.93 -179.706)" fill="#650d6b"/>
        <path id="Path_118" data-name="Path 118" d="M636.633,180.6a.491.491,0,0,1,.478-.492H640.3a3.152,3.152,0,0,1,2.249.763,1.919,1.919,0,0,1,.554,1.376v.024a2.077,2.077,0,0,1-1.365,1.991c1.018.306,1.843.9,1.843,2.077v.024c0,1.475-1.241,2.349-3.123,2.349h-3.345a.491.491,0,0,1-.478-.492V180.6Zm3.5,3.343c1.169,0,1.978-.527,1.978-1.537v-.024c0-.846-.674-1.4-1.9-1.4h-2.62v2.961Zm.344,3.9c1.3,0,2.112-.58,2.112-1.537v-.024c0-.935-.787-1.475-2.287-1.475h-2.717v3.036h2.889Z" transform="translate(-604.116 -179.984)" fill="#650d6b"/>
        <path id="Path_119" data-name="Path 119" d="M671.82,180.372a.491.491,0,0,1,.478-.492.5.5,0,0,1,.492.492v7.747a.5.5,0,0,1-.492.492.484.484,0,0,1-.478-.492Z" transform="translate(-629.85 -179.816)" fill="#650d6b"/>
        <path id="Path_120" data-name="Path 120" d="M686.64,180.372a.493.493,0,0,1,.478-.492.5.5,0,0,1,.492.492v7.279h4.463a.451.451,0,0,1,.443.454.44.44,0,0,1-.443.443h-4.955a.491.491,0,0,1-.478-.492v-7.683Z" transform="translate(-640.687 -179.816)" fill="#650d6b"/>
        <path id="Path_121" data-name="Path 121" d="M717.12,180.372a.491.491,0,0,1,.478-.492.5.5,0,0,1,.492.492v7.747a.5.5,0,0,1-.492.492.484.484,0,0,1-.478-.492Z" transform="translate(-662.977 -179.816)" fill="#650d6b"/>
        <path id="Path_122" data-name="Path 122" d="M732.37,181h-2.5a.45.45,0,0,1-.454-.443.459.459,0,0,1,.454-.454h5.974a.461.461,0,0,1,.454.454.451.451,0,0,1-.454.443h-2.5v7.279a.492.492,0,1,1-.983,0V181Z" transform="translate(-671.972 -179.976)" fill="#650d6b"/>
        <path id="Path_123" data-name="Path 123" d="M764.238,185.156l-3.2-4.474a.627.627,0,0,1-.113-.333.5.5,0,0,1,.505-.478.569.569,0,0,1,.468.3l2.84,4.1,2.865-4.1a.548.548,0,0,1,.454-.3.481.481,0,0,1,.478.478.745.745,0,0,1-.134.357l-3.184,4.426v2.975a.492.492,0,0,1-.984,0v-2.953Z" transform="translate(-695.014 -179.808)" fill="#650d6b"/>
      </g>
      <path id="Path_124" data-name="Path 124" d="M413.484,117.03a10.813,10.813,0,0,1-2.854,5.756,20.769,20.769,0,0,0,11.746,3.66l.156-6.186a14.326,14.326,0,0,1-9.048-3.23Z" transform="translate(-300.288 -85.582)" fill="url(#linear-gradient)"/>
      <path id="Path_125" data-name="Path 125" d="M335.265,17.254c-6.946-1.817-8.6-3.179-8.6-6.245V10.9c0-2.609,2.16-4.711,5.863-4.711h0a14.057,14.057,0,0,1,8.287,3.01c.387.255,1.153.822,1.153.822a11.124,11.124,0,0,1,2.555-5.947,2.64,2.64,0,0,0-.47-.382A18.521,18.521,0,0,0,332.637,0h-.005c-7.15,0-12.3,4.713-12.3,11.522v.113c0,7.32,4.324,9.819,11.993,11.861,6.691,1.706,8.137,3.235,8.137,6.073v.116c0,2.95-2.472,4.993-6.385,4.993a14.8,14.8,0,0,1-10.09-4.087,2.763,2.763,0,0,0-1.854-.626A3.1,3.1,0,0,0,319.15,33.2a3.387,3.387,0,0,0,1.236,2.668,21.106,21.106,0,0,0,13.541,4.993c4.093,0,7.521-1.3,9.808-3.66a10.813,10.813,0,0,0,2.854-5.756A14,14,0,0,0,346.8,29v-.113c0-6.586-3.912-9.593-11.533-11.635Z" transform="translate(-233.39 0)" fill="#ff6926"/>
      <path id="Path_126" data-name="Path 126" d="M368.935,6.186h0a14.057,14.057,0,0,1,8.287,3.01c.387.255,1.153.822,1.153.822a11.124,11.124,0,0,1,2.555-5.947,2.64,2.64,0,0,0-.47-.382A18.521,18.521,0,0,0,369.04,0h-.005l-.1,6.186Z" transform="translate(-269.793 0)" fill="url(#linear-gradient-2)"/>
    </g>
  </g>
</svg>
