<svg id="b" xmlns="http://www.w3.org/2000/svg" xmlns:xlink="http://www.w3.org/1999/xlink" width="191.205" height="51.5" viewBox="0 0 191.205 51.5">
  <defs>
    <linearGradient id="linear-gradient" x1="-0.254" y1="0.5" x2="1" y2="0.5" gradientUnits="objectBoundingBox">
      <stop offset="0.3" stop-color="#ec8c22"/>
      <stop offset="0.52" stop-color="#f3a71a"/>
      <stop offset="0.73" stop-color="#f9bc14"/>
      <stop offset="0.88" stop-color="#fcc412"/>
    </linearGradient>
    <linearGradient id="linear-gradient-2" y1="0.5" x2="1.077" y2="0.5" gradientUnits="objectBoundingBox">
      <stop offset="0.04" stop-color="#ff6926"/>
      <stop offset="0.49" stop-color="#f0522c"/>
      <stop offset="0.88" stop-color="#e13b34"/>
    </linearGradient>
  </defs>
  <g id="c">
    <g id="Group_132" data-name="Group 132">
      <path id="Path_127" data-name="Path 127" d="M417.22,15.556c-6.262-1.638-7.75-2.866-7.75-5.63v-.1c0-2.352,1.95-4.247,5.289-4.247A12.673,12.673,0,0,1,422.23,8.29a2.571,2.571,0,0,0,1.487.46,2.8,2.8,0,0,0,2.692-2.917,2.908,2.908,0,0,0-1.255-2.507A16.71,16.71,0,0,0,414.853,0a11.24,11.24,0,0,0-8.709,3.665,9.866,9.866,0,0,0-2.265,5.054h0a11.657,11.657,0,0,0-.119,1.667v.1c0,6.6,3.9,8.852,10.812,10.693,6.032,1.538,7.336,2.917,7.336,5.475v.1c0,2.66-2.229,4.5-5.756,4.5a12.916,12.916,0,0,1-8.157-2.912,9.748,9.748,0,0,1-2.573,5.189,18.725,18.725,0,0,0,10.589,3.3c6.824,0,11.6-3.99,11.6-10.693v-.1c0-5.938-3.527-8.649-10.4-10.49Z" transform="translate(-305.945 0)" fill="#fcc412"/>
      <path id="Path_128" data-name="Path 128" d="M0,24.011V6.253A2.976,2.976,0,0,1,2.88,3.13,2.938,2.938,0,0,1,5.713,6.253v17.5c0,6.652,3.111,10.185,8.22,10.185S22.1,30.612,22.1,24.011V6.253A2.974,2.974,0,0,1,24.982,3.13a2.938,2.938,0,0,1,2.832,3.123V23.7c0,10.7-5.48,16.069-13.976,16.069S0,34.4,0,24.011Z" transform="translate(0 -2.372)" fill="#fff"/>
      <path id="Path_129" data-name="Path 129" d="M138.87,6.354a3.02,3.02,0,0,1,2.878-3.174h.6a3.541,3.541,0,0,1,2.973,1.844l16.251,23.184V6.2a2.947,2.947,0,0,1,2.786-3.069A2.984,2.984,0,0,1,167.193,6.2V36.3a2.931,2.931,0,0,1-2.786,3.12h-.23a3.542,3.542,0,0,1-2.973-1.894L144.488,13.671V36.395a2.95,2.95,0,0,1-2.786,3.072,2.985,2.985,0,0,1-2.832-3.072Z" transform="translate(-105.227 -2.372)" fill="#fff"/>
      <path id="Path_130" data-name="Path 130" d="M279.47,6.253a2.974,2.974,0,0,1,2.878-3.123,2.938,2.938,0,0,1,2.832,3.123V36.346a2.967,2.967,0,0,1-2.832,3.123,3,3,0,0,1-2.878-3.123Z" transform="translate(-211.765 -2.372)" fill="#fff"/>
      <path id="Path_131" data-name="Path 131" d="M515.63,20.28v-.1c0-10.083,7.057-18.528,17.041-18.528s16.949,8.343,16.949,18.426v.1c0,10.08-7.06,18.526-17.043,18.526S515.63,30.36,515.63,20.28Zm28,0v-.1c0-6.96-4.6-12.745-11.052-12.745s-10.957,5.683-10.957,12.644v.1c0,6.96,4.6,12.692,11.052,12.692S543.628,27.24,543.628,20.28Z" transform="translate(-390.713 -1.25)" fill="#fff"/>
      <path id="Path_132" data-name="Path 132" d="M672.31,6.354a3.02,3.02,0,0,1,2.878-3.174h.6a3.541,3.541,0,0,1,2.973,1.844l16.251,23.184V6.2A2.947,2.947,0,0,1,697.8,3.13,2.984,2.984,0,0,1,700.633,6.2V36.3a2.931,2.931,0,0,1-2.786,3.12h-.23a3.542,3.542,0,0,1-2.973-1.894L677.928,13.671V36.395a2.95,2.95,0,0,1-2.786,3.072,2.985,2.985,0,0,1-2.832-3.072Z" transform="translate(-509.435 -2.372)" fill="#fff"/>
      <g id="Group_131" data-name="Group 131" transform="translate(124.917 43.52)">
        <path id="Path_133" data-name="Path 133" d="M515.63,180.553a.443.443,0,0,1,.431-.443h2.26a3.867,3.867,0,0,1,4.123,3.857v.022a3.884,3.884,0,0,1-4.123,3.881h-2.26a.443.443,0,0,1-.431-.443v-6.871Zm2.694,6.5a3,3,0,0,0,3.215-3.05v-.022a3.021,3.021,0,0,0-3.215-3.069h-1.817v6.141Z" transform="translate(-515.63 -179.996)" fill="#fff"/>
        <path id="Path_134" data-name="Path 134" d="M553.56,180.323a.443.443,0,0,1,.431-.443.453.453,0,0,1,.443.443v6.984a.447.447,0,0,1-.443.443.436.436,0,0,1-.431-.443Z" transform="translate(-544.371 -179.822)" fill="#fff"/>
        <path id="Path_135" data-name="Path 135" d="M566.707,186.581a.4.4,0,0,1-.167-.334.424.424,0,0,1,.422-.431.4.4,0,0,1,.266.1,3.523,3.523,0,0,0,2.449.921c1.042,0,1.73-.555,1.73-1.32v-.022c0-.72-.388-1.131-2.018-1.473-1.783-.39-2.6-.967-2.6-2.241v-.019a2.29,2.29,0,0,1,2.549-2.12,3.963,3.963,0,0,1,2.471.766.452.452,0,0,1,.189.356.422.422,0,0,1-.422.422.406.406,0,0,1-.254-.078,3.257,3.257,0,0,0-2.006-.676c-1.008,0-1.65.555-1.65,1.252v.022c0,.732.4,1.141,2.105,1.507,1.727.378,2.527,1.008,2.527,2.195v.022c0,1.33-1.107,2.192-2.648,2.192a4.532,4.532,0,0,1-2.939-1.042Z" transform="translate(-554.206 -179.64)" fill="#fff"/>
        <path id="Path_136" data-name="Path 136" d="M596.78,187l3.147-6.883a.573.573,0,0,1,.555-.39h.044a.555.555,0,0,1,.543.39l3.147,6.871a.579.579,0,0,1,.056.223.422.422,0,0,1-.422.422.472.472,0,0,1-.431-.322l-.809-1.785h-4.257l-.812,1.807a.441.441,0,0,1-.422.3.4.4,0,0,1-.4-.4.519.519,0,0,1,.056-.233Zm5.485-2.272-1.783-3.968L598.7,184.73Z" transform="translate(-577.075 -179.708)" fill="#fff"/>
        <path id="Path_137" data-name="Path 137" d="M636.632,180.553a.443.443,0,0,1,.431-.443h2.871a2.842,2.842,0,0,1,2.028.688,1.73,1.73,0,0,1,.5,1.24v.022a1.873,1.873,0,0,1-1.231,1.8c.918.276,1.662.812,1.662,1.873v.022c0,1.33-1.119,2.117-2.815,2.117h-3.016a.443.443,0,0,1-.431-.443v-6.871Zm3.159,3.014c1.054,0,1.783-.475,1.783-1.386v-.022c0-.763-.608-1.262-1.715-1.262H637.5v2.67h2.294Zm.31,3.515c1.175,0,1.9-.523,1.9-1.386v-.022c0-.843-.71-1.33-2.062-1.33h-2.449v2.738h2.6Z" transform="translate(-607.316 -179.996)" fill="#fff"/>
        <path id="Path_138" data-name="Path 138" d="M671.82,180.323a.443.443,0,0,1,.431-.443.453.453,0,0,1,.443.443v6.984a.447.447,0,0,1-.443.443.436.436,0,0,1-.431-.443Z" transform="translate(-633.981 -179.822)" fill="#fff"/>
        <path id="Path_139" data-name="Path 139" d="M686.64,180.323a.444.444,0,0,1,.431-.443.455.455,0,0,1,.443.443v6.563h4.024a.407.407,0,0,1,.4.409.4.4,0,0,1-.4.4h-4.467a.443.443,0,0,1-.431-.443v-6.926Z" transform="translate(-645.211 -179.822)" fill="#fff"/>
        <path id="Path_140" data-name="Path 140" d="M717.12,180.323a.443.443,0,0,1,.431-.443.453.453,0,0,1,.443.443v6.984a.447.447,0,0,1-.443.443.436.436,0,0,1-.431-.443Z" transform="translate(-668.307 -179.822)" fill="#fff"/>
        <path id="Path_141" data-name="Path 141" d="M732.08,180.909h-2.251a.405.405,0,0,1-.409-.4.414.414,0,0,1,.409-.409h5.385a.415.415,0,0,1,.409.409.407.407,0,0,1-.409.4h-2.251v6.563a.443.443,0,1,1-.887,0v-6.563Z" transform="translate(-677.627 -179.989)" fill="#fff"/>
        <path id="Path_142" data-name="Path 142" d="M763.912,184.635l-2.88-4.034a.565.565,0,0,1-.1-.3.452.452,0,0,1,.456-.431.513.513,0,0,1,.422.266l2.561,3.692,2.583-3.692a.494.494,0,0,1,.409-.266.434.434,0,0,1,.431.431.671.671,0,0,1-.121.322l-2.871,3.99V187.3a.443.443,0,0,1-.887,0v-2.662Z" transform="translate(-701.503 -179.814)" fill="#fff"/>
      </g>
      <path id="Path_143" data-name="Path 143" d="M413.2,117.03a9.748,9.748,0,0,1-2.573,5.189,18.725,18.725,0,0,0,10.589,3.3l.141-5.577A12.916,12.916,0,0,1,413.2,117.03Z" transform="translate(-311.15 -88.678)" fill="url(#linear-gradient)"/>
      <path id="Path_144" data-name="Path 144" d="M333.678,15.556c-6.262-1.638-7.75-2.866-7.75-5.63v-.1c0-2.352,1.948-4.247,5.286-4.247h0a12.673,12.673,0,0,1,7.471,2.713c.349.23,1.039.741,1.039.741a10.029,10.029,0,0,1,2.3-5.361,2.38,2.38,0,0,0-.424-.344A16.7,16.7,0,0,0,331.309,0h0c-6.447,0-11.086,4.249-11.086,10.388v.1c0,6.6,3.9,8.852,10.812,10.693,6.032,1.538,7.336,2.917,7.336,5.475v.1c0,2.66-2.229,4.5-5.756,4.5a13.342,13.342,0,0,1-9.1-3.685,2.491,2.491,0,0,0-1.672-.564,2.8,2.8,0,0,0-2.692,2.917,3.054,3.054,0,0,0,1.114,2.406,19.028,19.028,0,0,0,12.208,4.5,12.019,12.019,0,0,0,8.843-3.3,9.748,9.748,0,0,0,2.573-5.189,12.618,12.618,0,0,0,.189-2.2v-.1c0-5.938-3.527-8.649-10.4-10.49Z" transform="translate(-241.832)" fill="#ff6926"/>
      <path id="Path_145" data-name="Path 145" d="M368.935,5.577h0a12.673,12.673,0,0,1,7.471,2.713c.349.23,1.039.741,1.039.741a10.029,10.029,0,0,1,2.3-5.361,2.38,2.38,0,0,0-.424-.344A16.7,16.7,0,0,0,369.029,0h0l-.094,5.577Z" transform="translate(-279.552)" fill="url(#linear-gradient-2)"/>
    </g>
  </g>
</svg>
