<svg xmlns="http://www.w3.org/2000/svg" width="60" height="60" viewBox="0 0 60 60">
  <g id="Group_125" data-name="Group 125" transform="translate(-0.204)">
    <circle id="Ellipse_71" data-name="Ellipse 71" cx="30" cy="30" r="30" transform="translate(0.204 0)" fill="#ff6926"/>
    <g id="XMLID_822_" transform="translate(16.552 20.289)">
      <path id="XMLID_823_" d="M25.978,47.55C25,46.39,23.2,45.917,19.76,45.917H7.271c-3.519,0-5.351.5-6.323,1.739C0,48.86,0,50.634,0,53.089v4.68c0,4.757,1.125,7.172,7.271,7.172H19.76c2.984,0,4.637-.418,5.706-1.441,1.1-1.05,1.565-2.764,1.565-5.731v-4.68C27.032,50.5,26.958,48.715,25.978,47.55Zm-8.624,8.525-5.671,2.964a.872.872,0,0,1-1.276-.773V52.357a.872.872,0,0,1,1.274-.774l5.671,2.945a.872.872,0,0,1,0,1.547Z" transform="translate(0 -45.917)" fill="#fff"/>
    </g>
  </g>
</svg>
